<svg aria-hidden="true" style="position: absolute; width: 0; height: 0; overflow: hidden;" version="1.1" xmlns="http://www.w3.org/2000/svg" xmlns:xlink="http://www.w3.org/1999/xlink">
<defs>
<symbol id="icon-map" viewBox="0 0 32 32">
<path d="M26.501 7.964c-0.114-0.427-0.345-0.882-0.516-1.28-2.048-4.921-6.522-6.684-10.134-6.684-4.836 0-10.162 3.243-10.873 9.927v1.366c0 0.057 0.020 0.569 0.048 0.825 0.399 3.185 2.912 6.571 4.789 9.756 2.020 3.413 4.115 6.77 6.192 10.126 1.28-2.19 2.556-4.409 3.807-6.542 0.341-0.626 0.737-1.252 1.078-1.849 0.228-0.398 0.662-0.796 0.861-1.166 2.019-3.698 5.27-7.424 5.27-11.093v-1.507c0-0.398-0.493-1.792-0.521-1.877zM15.939 14.82c-1.422 0-2.978-0.711-3.746-2.674-0.114-0.313-0.105-0.939-0.105-0.996v-0.882c0-2.502 2.125-3.64 3.973-3.64 2.276 0 4.036 1.821 4.036 4.096s-1.883 4.096-4.158 4.096z"></path>
</symbol>
<symbol id="icon-phone" viewBox="0 0 32 32">
<path d="M24.329 21.168c-1.046-1.032-2.351-1.032-3.39 0-0.792 0.786-1.585 1.572-2.364 2.371-0.213 0.22-0.393 0.266-0.653 0.12-0.513-0.28-1.059-0.506-1.552-0.812-2.297-1.445-4.222-3.303-5.927-5.394-0.846-1.039-1.598-2.151-2.124-3.403-0.107-0.253-0.087-0.42 0.12-0.626 0.792-0.766 1.565-1.552 2.344-2.337 1.085-1.092 1.085-2.371-0.007-3.469-0.619-0.626-1.239-1.239-1.858-1.865-0.639-0.639-1.272-1.285-1.918-1.918-1.045-1.019-2.351-1.019-3.39 0.007-0.799 0.786-1.565 1.592-2.377 2.364-0.752 0.713-1.132 1.585-1.212 2.604-0.127 1.658 0.28 3.223 0.852 4.748 1.172 3.156 2.957 5.96 5.121 8.53 2.923 3.476 6.413 6.226 10.495 8.211 1.838 0.892 3.742 1.578 5.813 1.691 1.425 0.080 2.664-0.28 3.656-1.392 0.679-0.759 1.445-1.452 2.164-2.178 1.065-1.079 1.072-2.384 0.013-3.449-1.265-1.272-2.537-2.537-3.809-3.802z"></path>
<path d="M23.058 15.863l2.457-0.42c-0.386-2.257-1.452-4.302-3.070-5.927-1.712-1.711-3.876-2.79-6.26-3.123l-0.346 2.471c1.845 0.26 3.523 1.092 4.848 2.417 1.252 1.252 2.071 2.837 2.371 4.582z"></path>
<path d="M26.9 5.181c-2.837-2.837-6.426-4.628-10.388-5.181l-0.346 2.471c3.423 0.479 6.526 2.031 8.977 4.475 2.324 2.324 3.849 5.261 4.402 8.49l2.457-0.42c-0.646-3.742-2.411-7.139-5.101-9.836z"></path>
</symbol>
<symbol id="icon-close" viewBox="0 0 32 32">
<path d="M23.733 10.304l-1.504-1.504-5.963 5.963-5.963-5.963-1.504 1.504 5.963 5.963-5.963 5.963 1.504 1.504 5.963-5.963 5.963 5.963 1.504-1.504-5.963-5.963 5.963-5.963z"></path>
</symbol>
<symbol id="icon-menu-mobile" viewBox="0 0 32 32">
<path d="M6.4 11.733v-2.133h19.2v2.133h-19.2zM6.4 17.067h19.2v-2.133h-19.2v2.133zM6.4 22.4h19.2v-2.133h-19.2v2.133z"></path>
</symbol>
<symbol id="icon-arrow-right" viewBox="0 0 32 32">
<path d="M19.414 27.414l10-10c0.781-0.781 0.781-2.047 0-2.828l-10-10c-0.781-0.781-2.047-0.781-2.828 0s-0.781 2.047 0 2.828l6.586 6.586h-19.172c-1.105 0-2 0.895-2 2s0.895 2 2 2h19.172l-6.586 6.586c-0.39 0.39-0.586 0.902-0.586 1.414s0.195 1.024 0.586 1.414c0.781 0.781 2.047 0.781 2.828 0z"></path>
</symbol>
<symbol id="icon-arrow-left" viewBox="0 0 32 32">
<path d="M12.586 27.414l-10-10c-0.781-0.781-0.781-2.047 0-2.828l10-10c0.781-0.781 2.047-0.781 2.828 0s0.781 2.047 0 2.828l-6.586 6.586h19.172c1.105 0 2 0.895 2 2s-0.895 2-2 2h-19.172l6.586 6.586c0.39 0.39 0.586 0.902 0.586 1.414s-0.195 1.024-0.586 1.414c-0.781 0.781-2.047 0.781-2.828 0z"></path>
</symbol>
<symbol id="icon-phone" viewBox="0 0 32 32">
<path d="M24.882 19.773l-3.268-0.373c-0.785-0.090-1.557 0.18-2.11 0.733l-2.367 2.367c-3.641-1.853-6.626-4.825-8.478-8.478l2.38-2.38c0.553-0.553 0.823-1.325 0.733-2.11l-0.373-3.242c-0.154-1.299-1.248-2.277-2.56-2.277h-2.226c-1.454 0-2.663 1.209-2.573 2.663 0.682 10.987 9.469 19.761 20.443 20.443 1.454 0.090 2.663-1.119 2.663-2.573v-2.226c0.013-1.3-0.965-2.393-2.264-2.547z"></path>
</symbol>
<symbol id="icon-x-close" viewBox="0 0 32 32">
<path d="M32 3.223l-3.223-3.223-12.777 12.777-12.777-12.777-3.223 3.223 12.777 12.777-12.777 12.777 3.223 3.223 12.777-12.777 12.777 12.777 3.223-3.223-12.777-12.777 12.777-12.777z"></path>
</symbol>
<symbol id="icon-email" viewBox="0 0 32 32">
<path d="M26.667 5.333h-21.333c-1.467 0-2.653 1.2-2.653 2.667l-0.013 16c0 1.467 1.2 2.667 2.667 2.667h21.333c1.467 0 2.667-1.2 2.667-2.667v-16c0-1.467-1.2-2.667-2.667-2.667zM26.133 11l-9.427 5.893c-0.427 0.267-0.987 0.267-1.413 0l-9.427-5.893c-0.333-0.213-0.533-0.573-0.533-0.96 0-0.893 0.973-1.427 1.733-0.96l8.933 5.587 8.933-5.587c0.76-0.467 1.733 0.067 1.733 0.96 0 0.387-0.2 0.747-0.533 0.96z"></path>
</symbol>
<symbol id="icon-phone" viewBox="0 0 32 32">
<path d="M24.882 19.773l-3.268-0.373c-0.785-0.090-1.557 0.18-2.11 0.733l-2.367 2.367c-3.641-1.853-6.626-4.825-8.478-8.478l2.38-2.38c0.553-0.553 0.823-1.325 0.733-2.11l-0.373-3.242c-0.154-1.299-1.248-2.277-2.56-2.277h-2.226c-1.454 0-2.663 1.209-2.573 2.663 0.682 10.987 9.469 19.761 20.443 20.443 1.454 0.090 2.663-1.119 2.663-2.573v-2.226c0.013-1.3-0.965-2.393-2.264-2.547z"></path>
</symbol>
<symbol id="icon-user" viewBox="0 0 32 32">
<path d="M16 16c2.947 0 5.333-2.387 5.333-5.333s-2.387-5.333-5.333-5.333c-2.947 0-5.333 2.387-5.333 5.333s2.387 5.333 5.333 5.333zM16 18.667c-3.56 0-10.667 1.787-10.667 5.333v1.333c0 0.733 0.6 1.333 1.333 1.333h18.667c0.733 0 1.333-0.6 1.333-1.333v-1.333c0-3.547-7.107-5.333-10.667-5.333z"></path>
</symbol>
<symbol id="icon-check" viewBox="0 0 42 32">
<path fill="#fff" style="fill: var(--color1, #fff); stroke: var(--color1, #fff)" stroke="#fff" stroke-linejoin="miter" stroke-linecap="butt" stroke-miterlimit="4" stroke-width="0.64" d="M6.263 15.205l-0.22-0.21-3.307 3.132 11.651 11.114 24.477-23.351-3.285-3.134-21.192 20.197-8.124-7.75z"></path>
</symbol>
<symbol id="icon-send" viewBox="0 0 32 32">
<path fill="#fff" style="fill: var(--color1, #fff)" d="M32 0l-32 18 10.227 3.788 15.773-14.788-11.998 16.186 0.010 0.004-0.012-0.004v8.814l5.735-6.691 7.265 2.691 5-28z"></path>
</symbol>
</defs>
</svg>
