<svg aria-hidden="true" style="position: absolute; width: 0; height: 0; overflow: hidden;" version="1.1" xmlns="http://www.w3.org/2000/svg" xmlns:xlink="http://www.w3.org/1999/xlink">
<defs>
<symbol id="icon-map" viewBox="0 0 32 32">
<path fill="#fff" style="fill: var(--color1, #fff)" d="M23.141 10.536c-0.077-0.29-0.235-0.6-0.351-0.87-1.392-3.346-4.435-4.545-6.891-4.545-3.288 0-6.91 2.205-7.394 6.75v0.929c0 0.039 0.013 0.387 0.032 0.561 0.271 2.166 1.98 4.468 3.257 6.634 1.373 2.321 2.798 4.604 4.21 6.886 0.871-1.489 1.738-2.998 2.589-4.449 0.232-0.426 0.501-0.851 0.733-1.258 0.155-0.271 0.45-0.541 0.585-0.793 1.373-2.514 3.584-5.048 3.584-7.543v-1.025c0-0.271-0.335-1.218-0.354-1.277zM15.959 15.197c-0.967 0-2.025-0.483-2.547-1.818-0.078-0.212-0.072-0.638-0.072-0.677v-0.6c0-1.702 1.445-2.476 2.702-2.476 1.548 0 2.744 1.238 2.744 2.786s-1.28 2.785-2.828 2.785z"></path>
</symbol>
<symbol id="icon-phone" viewBox="0 0 32 32">
<path fill="#fff" style="fill: var(--color1, #fff)" d="M24.329 21.168c-1.046-1.032-2.351-1.032-3.39 0-0.792 0.786-1.585 1.572-2.364 2.371-0.213 0.22-0.393 0.266-0.653 0.12-0.513-0.28-1.059-0.506-1.552-0.812-2.297-1.445-4.222-3.303-5.927-5.394-0.846-1.039-1.598-2.151-2.124-3.403-0.107-0.253-0.087-0.42 0.12-0.626 0.792-0.766 1.565-1.552 2.344-2.337 1.085-1.092 1.085-2.371-0.007-3.469-0.619-0.626-1.239-1.239-1.858-1.865-0.639-0.639-1.272-1.285-1.918-1.918-1.045-1.019-2.351-1.019-3.39 0.007-0.799 0.786-1.565 1.592-2.377 2.364-0.752 0.713-1.132 1.585-1.212 2.604-0.127 1.658 0.28 3.223 0.852 4.748 1.172 3.156 2.957 5.96 5.121 8.53 2.923 3.476 6.413 6.226 10.495 8.211 1.838 0.892 3.742 1.578 5.813 1.691 1.425 0.080 2.664-0.28 3.656-1.392 0.679-0.759 1.445-1.452 2.164-2.178 1.065-1.079 1.072-2.384 0.013-3.449-1.265-1.272-2.537-2.537-3.809-3.802z"></path>
<path fill="#fff" style="fill: var(--color1, #fff)" d="M23.058 15.863l2.457-0.42c-0.386-2.257-1.452-4.302-3.070-5.927-1.712-1.711-3.876-2.79-6.26-3.123l-0.346 2.471c1.845 0.26 3.523 1.092 4.848 2.417 1.252 1.252 2.071 2.837 2.371 4.582z"></path>
<path fill="#fff" style="fill: var(--color1, #fff)" d="M26.9 5.181c-2.837-2.837-6.426-4.628-10.388-5.181l-0.346 2.471c3.423 0.479 6.526 2.031 8.977 4.475 2.324 2.324 3.849 5.261 4.402 8.49l2.457-0.42c-0.646-3.742-2.411-7.139-5.101-9.836z"></path>
</symbol>
</defs>
</svg>
